<?xml version="1.0" standalone="no"?>
<!DOCTYPE svg PUBLIC "-//W3C//DTD SVG 20010904//EN"
 "http://www.w3.org/TR/2001/REC-SVG-20010904/DTD/svg10.dtd">
<svg version="1.0" xmlns="http://www.w3.org/2000/svg"
 width="512.000000pt" height="512.000000pt" viewBox="0 0 512.000000 512.000000"
 preserveAspectRatio="xMidYMid meet">
<metadata>
Created by potrace 1.15, written by Peter Selinger 2001-2017
</metadata>
<g transform="translate(0.000000,512.000000) scale(0.100000,-0.100000)"
fill="#000000" stroke="none">
<path d="M2420 4069 c-25 -5 -56 -7 -70 -4 -20 5 -22 3 -10 -6 12 -8 7 -9 -20
-5 -20 3 -29 2 -22 -2 16 -11 -63 -36 -80 -26 -6 4 -8 3 -4 -4 8 -13 -29 -26
-45 -16 -8 5 -9 3 -4 -6 6 -10 4 -12 -9 -7 -11 5 -15 3 -10 -5 5 -8 2 -9 -10
-5 -11 5 -15 3 -10 -5 5 -8 2 -9 -10 -5 -11 5 -15 3 -10 -5 5 -8 2 -9 -10 -5
-10 4 -15 3 -11 -3 7 -11 -32 -33 -45 -25 -5 3 -12 0 -16 -6 -5 -8 -3 -9 6 -4
9 6 11 4 6 -4 -5 -7 -14 -10 -22 -7 -7 3 -16 0 -20 -6 -5 -7 -2 -8 6 -3 9 6
11 4 6 -4 -5 -7 -14 -10 -21 -7 -8 3 -19 -3 -27 -12 -11 -15 -11 -16 2 -7 9 6
7 2 -3 -7 -11 -10 -22 -16 -27 -13 -4 2 -18 -8 -31 -23 l-24 -27 26 20 c14 11
9 4 -11 -15 -20 -19 -51 -51 -70 -71 -19 -19 -26 -24 -15 -10 l20 26 -26 -23
c-15 -13 -26 -31 -25 -40 0 -9 -6 -17 -14 -17 -8 0 -14 -8 -12 -16 1 -9 -5
-23 -15 -30 -14 -12 -16 -12 -8 0 5 9 4 12 -3 7 -6 -4 -9 -13 -6 -20 3 -8 0
-17 -7 -22 -8 -5 -10 -3 -4 6 5 8 4 11 -3 6 -6 -4 -8 -14 -5 -23 4 -11 3 -14
-5 -9 -7 4 -13 4 -13 -1 -1 -4 -3 -17 -4 -28 -3 -27 -24 -66 -44 -83 -9 -8
-11 -11 -4 -7 7 3 2 -21 -12 -60 -14 -36 -25 -69 -25 -73 -1 -4 -15 9 -32 28
-17 19 -27 29 -23 22 6 -11 3 -12 -14 -3 -11 7 -21 14 -21 17 0 3 5 2 12 -2 7
-4 8 -3 4 5 -4 6 -11 9 -16 6 -12 -7 -100 37 -94 47 3 4 -3 5 -12 1 -13 -5
-15 -3 -9 7 5 8 4 11 -2 7 -6 -4 -55 5 -109 19 -91 23 -110 25 -239 19 -77 -3
-157 -7 -177 -8 -21 0 -33 -4 -27 -7 5 -4 -9 -12 -31 -19 -22 -6 -46 -9 -52
-5 -6 4 -8 3 -4 -4 8 -13 -29 -26 -45 -16 -8 5 -9 3 -4 -6 6 -10 4 -12 -9 -7
-10 4 -15 3 -11 -3 7 -11 -52 -43 -65 -35 -5 3 -12 0 -16 -6 -4 -8 -3 -9 4 -5
25 15 10 -3 -16 -20 -26 -17 -27 -17 -13 2 8 10 -3 0 -25 -24 -21 -24 -47 -44
-56 -46 -24 -3 -68 -46 -68 -66 0 -9 -10 -25 -22 -36 -22 -19 -23 -19 -8 1 14
18 14 19 -2 6 -10 -7 -16 -17 -13 -21 2 -4 -3 -16 -11 -26 -9 -10 -12 -13 -8
-5 4 9 3 12 -4 7 -6 -4 -9 -13 -6 -20 3 -8 0 -17 -7 -22 -8 -5 -10 -3 -4 6 5
8 4 11 -3 6 -6 -4 -8 -14 -5 -23 5 -12 3 -14 -7 -8 -8 5 -11 4 -6 -3 8 -13
-34 -103 -46 -96 -4 3 -5 -3 -1 -12 4 -11 3 -15 -4 -11 -7 5 -9 -1 -6 -15 3
-17 2 -19 -5 -10 -7 11 -10 9 -15 -7 -3 -14 -1 -19 6 -14 7 4 8 0 4 -11 -4
-10 -7 -23 -7 -29 0 -7 -4 -6 -10 3 -7 10 -8 4 -4 -20 4 -26 1 -40 -10 -49 -9
-7 -16 -19 -16 -25 0 -8 2 -8 8 1 4 6 7 -69 6 -168 0 -98 3 -174 6 -169 4 6
13 -14 22 -44 10 -36 11 -54 4 -50 -6 3 -3 -1 8 -10 11 -9 16 -22 12 -31 -4
-11 -2 -14 6 -9 8 5 9 2 5 -10 -5 -11 -3 -15 5 -10 8 5 9 2 5 -10 -5 -11 -3
-15 5 -10 8 5 9 2 5 -10 -5 -11 -3 -15 5 -10 8 5 9 2 5 -10 -5 -11 -3 -15 5
-10 8 5 9 2 5 -9 -4 -10 -2 -16 6 -14 7 1 11 -6 9 -17 -2 -10 1 -15 7 -12 12
8 33 -28 23 -39 -4 -5 -2 -5 4 -2 10 6 25 -13 28 -35 1 -4 8 -13 16 -20 12
-11 12 -10 0 7 -11 15 -8 14 13 -4 15 -14 25 -26 22 -29 -5 -6 21 -32 33 -32
4 0 19 -12 33 -27 l24 -28 -25 20 -25 20 19 -22 c10 -13 23 -20 28 -17 12 7
39 -16 32 -27 -3 -5 1 -6 9 -3 8 3 18 0 23 -7 5 -8 3 -10 -6 -4 -8 5 -11 4 -6
-3 4 -6 13 -9 20 -6 8 3 17 0 22 -7 5 -8 3 -10 -6 -4 -8 5 -11 4 -6 -3 4 -6
14 -8 23 -5 11 4 14 3 9 -5 -5 -8 -1 -10 10 -5 12 4 15 3 10 -5 -4 -8 -2 -10
8 -6 8 3 23 -3 33 -13 11 -11 25 -17 33 -15 7 3 19 -3 27 -14 7 -10 13 -13 13
-6 0 6 7 9 15 6 8 -4 12 -11 8 -17 -3 -5 -1 -7 5 -3 6 3 13 2 17 -4 3 -5 12
-10 18 -10 7 0 6 4 -3 11 -12 8 -10 9 10 5 14 -4 46 -9 73 -13 34 -4 47 -10
47 -22 0 -14 2 -14 11 -1 8 11 9 3 5 -30 -3 -27 -2 -37 3 -25 6 16 9 13 15
-20 4 -22 9 -49 12 -60 4 -16 3 -17 -5 -5 -13 18 -13 3 -1 -25 6 -14 9 -15 10
-5 0 8 7 0 16 -19 8 -19 12 -36 9 -39 -3 -3 -5 1 -5 8 0 7 -2 11 -5 8 -8 -8 6
-39 15 -33 11 7 22 -24 13 -37 -4 -7 -1 -8 7 -3 10 6 12 4 7 -9 -5 -11 -3 -15
5 -10 8 5 9 2 5 -10 -4 -10 -3 -15 3 -11 9 6 14 -8 11 -28 0 -4 5 -6 11 -5 7
2 13 -4 14 -12 0 -8 17 -32 37 -53 21 -21 35 -42 32 -46 -2 -5 5 -17 18 -27
l22 -19 -20 25 -20 25 27 -24 c15 -13 26 -29 25 -35 -1 -6 5 -10 14 -8 9 1 24
-8 35 -20 l19 -23 -25 20 -25 20 19 -22 c10 -13 22 -21 26 -18 4 2 16 -3 26
-11 10 -9 13 -12 5 -8 -9 4 -12 3 -7 -4 4 -6 13 -9 20 -6 8 3 17 0 22 -7 5 -8
3 -10 -6 -4 -8 5 -11 4 -6 -3 4 -6 14 -8 23 -5 10 4 14 2 10 -4 -4 -6 1 -10
11 -9 9 0 16 -4 15 -11 -2 -8 4 -10 14 -6 11 4 14 3 9 -5 -5 -8 -1 -10 10 -5
12 4 15 3 10 -5 -4 -7 -2 -10 6 -7 18 7 145 -41 127 -48 -8 -3 2 -3 21 0 27 3
31 2 20 -6 -11 -8 -7 -10 17 -5 18 4 40 3 50 -1 10 -4 32 -7 48 -7 29 1 29 1
5 -7 -21 -8 -18 -9 20 -9 34 -1 40 2 25 8 -19 8 72 16 164 13 22 0 29 2 20 8
-9 6 -10 9 -2 9 6 0 19 3 29 7 12 4 15 3 10 -5 -4 -7 -2 -12 3 -12 6 0 11 6
11 13 0 8 16 18 35 24 19 6 33 7 29 2 -3 -5 2 -6 10 -3 9 3 14 10 11 14 -7 11
24 22 37 13 7 -3 8 -1 4 5 -7 12 30 36 44 27 5 -3 12 0 16 6 5 8 3 9 -6 4 -9
-6 -11 -4 -6 4 5 7 15 10 23 7 9 -4 42 23 91 72 42 42 64 61 47 42 l-30 -35
37 34 c21 19 35 38 32 42 -2 4 8 20 22 36 15 15 20 19 13 8 -13 -18 -13 -19 3
-6 10 7 16 17 13 21 -2 4 3 16 11 26 9 10 12 13 8 5 -5 -9 -3 -12 5 -7 6 4 9
11 6 15 -2 5 3 17 11 27 9 10 12 13 8 5 -5 -9 -3 -12 5 -7 6 4 9 11 6 16 -3 4
6 27 18 49 l24 41 11 -25 c7 -14 12 -32 12 -39 0 -6 7 -21 16 -32 8 -10 12
-12 8 -4 -7 13 -6 13 10 1 9 -8 15 -20 12 -27 -3 -7 0 -16 6 -20 7 -5 8 -2 3
6 -5 9 -4 11 3 6 7 -4 12 -15 12 -25 0 -10 8 -25 18 -32 16 -13 16 -13 2 6
-11 15 -7 14 13 -4 15 -14 27 -33 27 -43 0 -10 6 -17 13 -16 6 2 11 -3 9 -9
-1 -7 5 -13 13 -13 8 0 15 -4 15 -10 0 -5 6 -10 13 -10 8 0 24 -12 38 -27 l24
-28 -26 20 c-14 11 -7 4 14 -17 22 -20 46 -34 53 -31 6 2 15 -1 20 -8 5 -8 3
-10 -6 -4 -8 5 -11 4 -6 -3 4 -6 13 -9 20 -6 8 3 17 0 22 -7 5 -8 3 -10 -6 -4
-8 5 -11 4 -6 -3 4 -6 14 -8 23 -5 12 5 14 3 8 -7 -5 -9 -4 -11 3 -6 13 8 40
-4 42 -19 1 -5 7 -9 12 -7 19 5 48 -9 42 -20 -4 -7 -2 -8 4 -4 15 9 95 -14
105 -31 4 -7 16 -13 25 -12 14 0 13 2 -3 9 -19 8 -19 9 2 9 12 1 28 -6 37 -14
8 -8 30 -14 48 -14 l33 1 -30 8 c-21 5 -5 8 57 9 47 0 94 4 104 8 12 4 15 3
10 -5 -5 -8 0 -12 14 -12 12 0 19 4 16 9 -3 5 12 13 34 19 22 5 37 6 34 1 -3
-5 2 -9 11 -9 8 0 18 7 21 15 4 8 10 15 16 15 5 0 6 -6 2 -12 -4 -7 1 -6 12 3
27 23 87 42 79 26 -4 -7 1 -3 9 7 9 11 16 15 16 8 0 -6 7 -9 15 -6 8 4 13 10
10 14 -7 11 52 33 66 24 8 -5 9 -3 4 6 -6 10 -4 12 9 7 10 -4 15 -3 11 3 -3 5
8 16 26 25 18 10 28 12 24 5 -6 -9 -2 -9 14 -1 11 7 21 14 21 17 0 3 -4 2 -10
-1 -5 -3 -10 -4 -10 -2 0 2 19 17 43 32 30 21 38 23 27 9 -14 -18 -14 -18 5
-4 11 8 54 49 95 91 54 54 60 58 20 15 l-55 -61 62 59 c34 33 60 63 58 67 -3
4 3 15 13 26 9 10 13 12 7 3 -9 -13 -8 -13 7 -2 9 8 15 19 12 27 -3 7 0 16 7
21 8 5 10 3 4 -6 -5 -8 -4 -11 3 -6 6 4 8 14 5 23 -4 10 -2 14 4 10 6 -4 10 1
9 11 0 9 4 16 11 15 8 -2 10 4 6 14 -5 12 -3 14 7 8 8 -5 11 -4 6 3 -3 6 4 43
18 82 24 72 39 101 30 58 -5 -21 -4 -21 11 5 8 15 23 27 33 27 15 0 15 -2 2
-10 -9 -6 -10 -10 -3 -10 7 0 16 6 20 13 10 17 41 29 45 17 2 -4 17 -2 33 6
26 12 26 13 5 8 -22 -4 -23 -4 -7 6 10 7 25 9 33 6 10 -4 12 -2 8 6 -5 8 -2 9
10 5 11 -5 15 -3 10 5 -5 8 -2 9 9 5 9 -3 19 -1 23 5 5 7 2 8 -6 3 -9 -6 -11
-4 -6 4 5 7 15 10 23 7 8 -3 12 -2 10 2 -3 4 7 16 22 27 26 19 26 19 11 0 -14
-19 -14 -19 5 -6 11 8 38 32 59 55 22 23 33 32 25 21 -13 -18 -13 -19 3 -6 10
7 16 17 13 21 -2 3 10 22 27 41 16 19 24 25 17 14 -13 -18 -12 -19 3 -7 9 8
15 19 12 26 -3 7 3 19 12 27 15 12 17 12 9 0 -5 -9 -4 -12 3 -7 6 4 9 13 6 20
-3 8 0 17 7 22 8 5 10 3 4 -6 -5 -8 -4 -11 3 -6 6 4 8 14 5 23 -4 11 -3 14 5
9 8 -5 10 -1 5 10 -4 12 -3 15 5 10 8 -5 10 -1 5 10 -4 12 -3 15 5 10 8 -5 10
-1 5 10 -4 12 -3 15 5 10 8 -5 10 -1 5 10 -5 13 -3 15 7 9 9 -5 11 -4 6 4 -4
6 2 35 13 65 54 144 67 364 30 502 -12 43 -22 89 -23 101 -1 11 -4 19 -7 18
-9 -6 -50 86 -43 97 5 7 2 8 -6 3 -10 -6 -12 -4 -7 8 4 10 2 16 -6 14 -7 -1
-11 6 -11 15 1 10 -3 16 -10 15 -6 -1 -11 7 -11 18 0 11 -7 20 -15 20 -8 0
-14 8 -14 17 1 9 -10 27 -25 40 l-26 23 24 -30 c14 -16 -20 15 -75 70 -54 55
-94 93 -89 84 6 -8 -1 -3 -15 11 -14 14 -20 19 -15 11 7 -10 2 -9 -17 3 -26
17 -41 35 -16 20 7 -4 8 -3 4 4 -4 6 -14 8 -23 5 -11 -4 -14 -3 -9 5 5 8 1 10
-10 5 -13 -5 -15 -3 -9 7 5 8 4 11 -3 6 -13 -8 -103 34 -96 46 3 4 -1 6 -8 3
-18 -7 -115 31 -97 38 8 3 -2 3 -21 0 -22 -3 -30 -1 -23 4 8 6 0 9 -25 9 -20
1 -82 4 -137 9 -76 5 -122 3 -192 -9 -51 -9 -100 -13 -110 -10 -13 4 -15 3 -5
-4 11 -7 8 -11 -13 -16 -14 -4 -31 -4 -37 0 -6 4 -8 3 -4 -4 8 -13 -29 -26
-45 -16 -7 4 -9 3 -6 -3 4 -6 0 -13 -7 -16 -17 -7 -42 55 -30 74 4 7 3 9 -3 6
-14 -9 -37 48 -27 64 5 8 3 9 -6 4 -10 -6 -12 -4 -7 9 5 11 3 15 -5 10 -8 -5
-9 -2 -5 10 4 10 3 15 -3 11 -11 -7 -33 32 -25 45 4 6 1 9 -7 8 -7 -2 -12 5
-12 14 1 10 -2 15 -7 12 -8 -5 -13 9 -10 28 0 5 -5 7 -12 5 -6 -1 -12 6 -12
15 0 10 -7 23 -15 30 -12 11 -12 10 0 -7 13 -19 13 -19 -4 -4 -9 9 -18 24 -20
33 -3 20 -106 127 -117 121 -4 -3 -15 3 -26 13 -10 9 -12 13 -3 7 13 -9 13 -8
1 7 -7 10 -17 16 -21 13 -4 -2 -16 3 -26 11 -10 9 -13 12 -5 8 9 -4 12 -3 7 4
-4 6 -13 9 -20 6 -8 -3 -17 0 -22 7 -5 8 -3 10 6 4 8 -5 11 -4 6 3 -4 6 -13 9
-20 6 -8 -3 -17 0 -22 7 -5 8 -3 10 6 4 9 -5 11 -4 6 4 -4 6 -11 9 -16 6 -15
-9 -72 24 -64 37 5 7 3 8 -5 4 -16 -10 -73 13 -64 27 3 6 1 7 -6 3 -14 -9 -53
2 -46 14 3 4 -5 6 -17 3 -19 -4 -21 -3 -8 7 13 10 12 11 -4 6 -24 -8 -135 15
-113 23 28 10 -336 10 -383 0z"/>
</g>
</svg>
